<svg width="20" height="20" fill="none" xmlns="http://www.w3.org/2000/svg"><g clip-path="url(#a)"><path d="M9.5 1.6c.2-.4.8-.4 1 0l2 5c.1.2.3.3.4.3l5.4.4c.5 0 .6.6.3.9l-4 3.5c-.2.1-.3.3-.2.5l1.2 5.2c.1.5-.4.8-.7.6l-4.6-2.8a.5.5 0 0 0-.6 0L5.1 18a.5.5 0 0 1-.7-.6l1.2-5.2-.1-.5-4.1-3.5a.5.5 0 0 1 .3-.9L7 7l.4-.3 2-5Z" fill="#F2F4F7"/><g clip-path="url(#b)"><path d="M9.5 1.6c.2-.4.8-.4 1 0l2 5c.1.2.3.3.4.3l5.4.4c.5 0 .6.6.3.9l-4 3.5c-.2.1-.3.3-.2.5l1.2 5.2c.1.5-.4.8-.7.6l-4.6-2.8a.5.5 0 0 0-.6 0L5.1 18a.5.5 0 0 1-.7-.6l1.2-5.2-.1-.5-4.1-3.5a.5.5 0 0 1 .3-.9L7 7l.4-.3 2-5Z" fill="#FEC84B"/></g></g><defs><clipPath id="a"><path fill="#fff" d="M0 0h20v20H0z"/></clipPath><clipPath id="b"><path fill="#fff" d="M0 0h20v20H0z"/></clipPath></defs></svg>