<svg width="87" height="87" viewBox="0 0 87 87" fill="none" xmlns="http://www.w3.org/2000/svg">
<g filter="url(#filter0_d_6301_2830)">
<circle cx="43.5" cy="39.5" r="39.5" fill="white"/>
</g>
<g clip-path="url(#clip0_6301_2830)">
<path fill-rule="evenodd" clip-rule="evenodd" d="M44.0001 26C44.5305 26.0001 45.0391 26.2109 45.4141 26.586L55.4141 36.586C55.7784 36.9632 55.98 37.4684 55.9754 37.9928C55.9709 38.5172 55.7605 39.0188 55.3897 39.3896C55.0189 39.7605 54.5173 39.9708 53.9929 39.9753C53.4685 39.9799 52.9633 39.7783 52.5861 39.414L44.0001 30.828L35.4141 39.414C35.0369 39.7783 34.5317 39.9799 34.0073 39.9753C33.4829 39.9708 32.9813 39.7605 32.6104 39.3896C32.2396 39.0188 32.0293 38.5172 32.0247 37.9928C32.0202 37.4684 32.2218 36.9632 32.5861 36.586L42.5861 26.586C42.9611 26.2109 43.4697 26.0001 44.0001 26ZM44.0001 38C44.5305 38.0001 45.0391 38.2109 45.4141 38.586L55.4141 48.586C55.7784 48.9632 55.98 49.4684 55.9754 49.9928C55.9709 50.5172 55.7605 51.0188 55.3897 51.3896C55.0189 51.7605 54.5173 51.9708 53.9929 51.9753C53.4685 51.9799 52.9633 51.7783 52.5861 51.414L44.0001 42.828L35.4141 51.414C35.0369 51.7783 34.5317 51.9799 34.0073 51.9753C33.4829 51.9708 32.9813 51.7605 32.6104 51.3896C32.2396 51.0188 32.0293 50.5172 32.0247 49.9928C32.0202 49.4684 32.2218 48.9632 32.5861 48.586L42.5861 38.586C42.9611 38.2109 43.4697 38.0001 44.0001 38Z" fill="#0275BF"/>
</g>
<defs>
<filter id="filter0_d_6301_2830" x="0" y="0" width="87" height="87" filterUnits="userSpaceOnUse" color-interpolation-filters="sRGB">
<feFlood flood-opacity="0" result="BackgroundImageFix"/>
<feColorMatrix in="SourceAlpha" type="matrix" values="0 0 0 0 0 0 0 0 0 0 0 0 0 0 0 0 0 0 127 0" result="hardAlpha"/>
<feMorphology radius="1" operator="erode" in="SourceAlpha" result="effect1_dropShadow_6301_2830"/>
<feOffset dy="4"/>
<feGaussianBlur stdDeviation="2.5"/>
<feComposite in2="hardAlpha" operator="out"/>
<feColorMatrix type="matrix" values="0 0 0 0 0 0 0 0 0 0 0 0 0 0 0 0 0 0 0.25 0"/>
<feBlend mode="normal" in2="BackgroundImageFix" result="effect1_dropShadow_6301_2830"/>
<feBlend mode="normal" in="SourceGraphic" in2="effect1_dropShadow_6301_2830" result="shape"/>
</filter>
<clipPath id="clip0_6301_2830">
<rect width="48" height="48" fill="white" transform="translate(20 16)"/>
</clipPath>
</defs>
</svg>
