<svg width="108" height="32" fill="none" xmlns="http://www.w3.org/2000/svg"><g clip-path="url(#a)" fill="#fff"><path d="m41.8 24.8-.5-.3c-1.5-.8-1.6-3-1-4 .5-.7 1-1.2 1.7-1.7l.3-.2v-.1c-1.4-.7-1.7-2-1.6-3.4 0-2 1.2-3 2.8-3.6 2.1-.7 4.2-.7 6.3 0 2 .6 2.6 2.1 2.5 4-.2 2-1.4 3.4-3.6 4-1.2.2-2.4.3-3.7.1-.5 0-1.2.3-1.4.9 0 .4.1.9.5 1 .5.2 1 .4 1.5.4H49c.7 0 1.5.2 2.2.5 1.5.6 2 2 2.2 3.6 0 2.4-1.1 4-3.2 5-1.7 1-3.5 1.1-5.4 1-1-.1-2.2-.3-3.2-.9a3.5 3.5 0 0 1-2-3.7c.2-1 .9-1.7 1.6-2.3l.5-.3Zm4.4 4c1 0 1.9-.1 2.6-.8a2 2 0 0 0 .6-2c-.2-.7-.8-1-1.7-1H45c-.6-.1-1 .2-1.5.6-.8 1-.7 2 .5 2.7.7.4 1.5.6 2.3.6Zm2.2-13.4c0-1.3-.7-2-2-2a2 2 0 0 0-2 2c0 1.2.9 2 2 2 1.2 0 2-.8 2-2Zm-23.3-4h-3.5l-.3.2-3 8.2v.3l-.8-2.3-2-6c-.2-.3-.3-.4-.6-.4H11l.3.7A9153.3 9153.3 0 0 1 16 24.9c-.5 1-.9 2.2-1.6 3-.6.8-1.3 1.2-2.2 1.2l-1.2-.2-.4.2-.5 2.4c.6 0 1.2.2 1.7.3 1.9.2 3.5-.1 5-1.4 1-1 1.5-2 2-3.2l5-12.8 1.3-3Zm55.3 13.2v-9.8c-.1-2.1-1.3-3.4-3.2-3.7a7 7 0 0 0-4.9 1.1l-.4.3v-1.1h-3.6c-.2 0-.3 0-.3.3v12.5c0 .3.1.4.4.4H72v-9l.1-.5c.8-.7 1.6-1.1 2.6-1 1 0 1.6.6 1.7 1.6v8.9h4Zm-42.1 0v-9.8c-.1-2-1.3-3.3-3.1-3.6-1.8-.3-3.4.1-4.9 1l-.5.4v-.8c0-.3-.1-.4-.4-.4h-3c-.3 0-.5 0-.5.5v12.8h3.5c.4 0 .5-.1.5-.5v-8.5l.1-.5c.8-.8 1.7-1.2 2.9-1 .8 0 1.3.6 1.4 1.5V24c0 .6 0 .6.6.6h3.4ZM64.7 21l1 2.4-1.7.8c-2 .7-3.9 1-5.8.5-2.6-.6-4-2.3-4.5-5-.4-1.7-.3-3.5.6-5a6.4 6.4 0 0 1 5.6-3.6c.9 0 1.8 0 2.7.3 1.7.4 2.8 1.6 3.3 3.3.4 1.4.4 2.7.3 4.2h-8.5c-.1 1.4.7 2.6 2.2 3 1.5.3 3 0 4.5-.7l.2-.1h.1Zm-7-4.9.1.1H62l.2-.2c0-.7-.1-1.3-.7-1.7-.7-.6-1.5-.7-2.4-.3-.8.4-1.2 1.2-1.4 2.1Zm42 7.4c-.8.7-1.6 1-2.4 1.3-1 .1-2.1.1-3.1-.2-1.3-.5-2-1.6-2.1-3-.2-2.6 1-4.4 3.5-5 1.2-.3 2.4-.4 3.5-.5h.5c.2-1.3-.4-2.1-1.6-2.3-1.2-.1-2.3.2-3.3.6l-1.1.6-1-2.4c1-.6 2.2-1 3.4-1.3 1.4-.4 3-.5 4.4 0 2 .4 3 1.8 3 3.8v9.1c0 .3 0 .4-.3.4h-3c-.3 0-.4-.1-.4-.4v-.7Zm0-3.6v-.6c-.1-.8 0-.8-.8-.7-.8 0-1.5 0-2.2.4-.6.4-.8 1.1-.7 2 .1.5.6 1 1.2 1 .7.2 1.3 0 1.8-.4.4-.2.7-.6.6-1.2V20ZM0 23.9l.5.1c1.7.7 3.5 1 5.4.9 1 0 2-.3 2.9-.8 1.6-1 2.3-2.4 2.1-4.4-.2-1.7-1.2-2.8-3-3.3l-.6-.2-2-.5c-.6-.1-1-.5-1-1s.3-.9 1-1c.4-.1.9-.2 1.4-.1.8 0 1.6.2 2.5.4l1-2.5H10c-2-.6-4-.9-6-.5-2.1.5-3.9 2-3.6 4.8 0 1.1.5 2.1 1.5 2.7l2 .7 2.4.7c.6.1.8.7.7 1.3-.2.4-.5.6-1 .8-.7.2-1.5.2-2.3 0L1 21.3 0 23.9Zm87.6-12.6v-4l-3.5 1c-.3 0-.4.1-.4.5v2.5h-2V14h2v7c0 1.9.8 3 2.4 3.6 1.6.5 3.3.3 4.9 0 0 0 .2-.1.1-.2L91 22h-.8c-1.7.2-2.4-.4-2.4-2.1V14h3.5v-2.4c0-.3-.2-.3-.4-.3h-3.1ZM49.7 10.7c-.4-2-.6-3.8.2-5.6a5.8 5.8 0 0 1 2.6-2.9A16 16 0 0 1 57.8.4l2-.4-.8 2.1-1 4a5 5 0 0 1-3.1 4l-1.8.2-2.7.2-.7.2ZM106.5 11c-1 0-1.6.7-1.6 1.6 0 .9.7 1.6 1.6 1.6.8 0 1.5-.7 1.5-1.6 0-1-.7-1.6-1.5-1.6Zm.8 2.6c-.2.2-.5.4-.8.4-.8 0-1.3-.6-1.3-1.4 0-.8.5-1.4 1.2-1.4.8 0 1.3.6 1.3 1.4 0 .4-.1.7-.4 1Z"/><path d="m106.5 12.8.3.6h.4l-.4-.6c.2 0 .4-.2.4-.5 0-.4-.2-.5-.7-.5h-.7v1.6h.3v-.6h.4Zm-.4-.8h.4c.2 0 .3 0 .3.3 0 .2 0 .2-.3.2h-.4V12Z"/></g><defs><clipPath id="a"><path fill="#fff" d="M0 0h108v32H0z"/></clipPath></defs></svg>